<svg width="26" height="26" viewBox="0 0 26 26" fill="none" xmlns="http://www.w3.org/2000/svg">
<path fill-rule="evenodd" clip-rule="evenodd" d="M13.9173 5.56467C15.3434 5.56467 16.4996 4.40852 16.4996 2.98233C16.4996 1.55615 15.3434 0.400002 13.9173 0.400002C12.4911 0.400002 11.3349 1.55615 11.3349 2.98233C11.3349 4.40852 12.4911 5.56467 13.9173 5.56467ZM25.5823 13C25.5823 15.9015 23.2301 18.2537 20.3286 18.2537C17.427 18.2537 15.0748 15.9015 15.0748 13C15.0748 10.0985 17.427 7.74629 20.3286 7.74629C23.2301 7.74629 25.5823 10.0985 25.5823 13ZM16.4996 23.0177C16.4996 24.4439 15.3434 25.6 13.9173 25.6C12.4911 25.6 11.3349 24.4439 11.3349 23.0177C11.3349 21.5915 12.4911 20.4353 13.9173 20.4353C15.3434 20.4353 16.4996 21.5915 16.4996 23.0177ZM0.693931 5.74276C-0.0629594 7.74629 1.00559 10.017 3.00913 10.7739C4.34481 11.2636 5.76955 10.9965 6.79358 10.1505C7.72856 9.48269 8.93068 9.26007 10.0883 9.7053C10.8452 9.97244 11.424 10.4622 11.8247 11.0855L11.8692 11.1746C12.0473 11.4417 12.3144 11.7088 12.6706 11.7979C13.472 12.1095 14.407 11.6643 14.6741 10.8629C14.9858 10.0615 14.5406 9.1265 13.7392 8.85937C13.383 8.7258 13.0268 8.7258 12.6706 8.85937C11.9582 9.08198 11.1568 9.08198 10.3999 8.81484C9.28686 8.41414 8.52997 7.52368 8.21831 6.49965L8.17379 6.4106C8.17379 6.36608 8.17379 6.32156 8.12927 6.32156V6.23251C7.81761 4.98587 6.97167 3.91732 5.6805 3.47209C3.67697 2.67067 1.4063 3.6947 0.693931 5.74276ZM3.00913 15.2261C1.00559 15.983 -0.0629594 18.2537 0.693931 20.2572C1.45082 22.3053 3.67697 23.3293 5.6805 22.5279C6.97167 22.0827 7.81761 21.0141 8.12927 19.7675V19.6784C8.17379 19.6784 8.17379 19.6339 8.17379 19.5894L8.21831 19.5004C8.52997 18.4763 9.28686 17.5859 10.3999 17.1852C11.1568 16.918 11.9582 16.918 12.6706 17.1406C13.0268 17.2742 13.383 17.2742 13.7392 17.1406C14.5406 16.8735 14.9858 15.9385 14.6741 15.1371C14.407 14.3357 13.472 13.8905 12.6706 14.2021C12.3144 14.2912 12.0473 14.5583 11.8692 14.8254L11.8247 14.9145C11.424 15.5378 10.8452 16.0276 10.0883 16.2947C8.93068 16.7399 7.72856 16.5173 6.79358 15.8495C5.76955 15.0035 4.34481 14.7364 3.00913 15.2261Z" fill="#502EA2"/>
</svg>
