<svg width="87" height="28" viewBox="0 0 87 28" fill="none" xmlns="http://www.w3.org/2000/svg">
<g id="&#232;&#181;&#132;&#230;&#186;&#144; 1&#229;&#164;&#135;&#228;&#187;&#189;">
<circle id="&#230;&#164;&#173;&#229;&#156;&#134;&#229;&#189;&#162;" cx="20.4027" cy="14.0062" r="5.40359" transform="rotate(-76.66 20.4027 14.0062)" fill="white"/>
<circle id="&#230;&#164;&#173;&#229;&#156;&#134;&#229;&#189;&#162;_2" cx="13.8234" cy="24.2554" r="2.64798" transform="rotate(-44.47 13.8234 24.2554)" fill="white"/>
<circle id="&#230;&#164;&#173;&#229;&#156;&#134;&#229;&#189;&#162;_3" cx="13.8219" cy="3.74464" r="2.64798" transform="rotate(-44.47 13.8219 3.74464)" fill="white"/>
<path id="&#232;&#183;&#175;&#229;&#190;&#132;" fill-rule="evenodd" clip-rule="evenodd" d="M0.251521 6.55005C-0.375685 8.23429 0.198788 10.13 1.6554 11.1828C3.11202 12.2356 5.09228 12.1863 6.49471 11.0624C7.48007 10.3426 8.7606 10.1648 9.90479 10.5887C10.6377 10.8534 11.2648 11.349 11.6916 12.001L11.7562 12.1C11.9411 12.4011 12.2216 12.6315 12.5528 12.7545C13.385 13.0612 14.3084 12.6352 14.6152 11.8029C14.9219 10.9707 14.4959 10.0473 13.6636 9.74053C13.3131 9.61358 12.9291 9.61358 12.5786 9.74053C11.6514 10.0358 10.6445 9.94688 9.78341 9.49367C8.92231 9.04046 8.27894 8.26083 7.99739 7.32937L7.96725 7.21742L7.91989 7.10117L7.89836 7.01936C7.49461 5.30057 6.01169 4.04979 4.24943 3.94163C2.48716 3.83347 0.862428 4.89352 0.251521 6.55005Z" fill="white"/>
<path id="&#232;&#183;&#175;&#229;&#190;&#132;_2" fill-rule="evenodd" clip-rule="evenodd" d="M0.260145 21.4562C-0.359218 19.7731 0.217391 17.8835 1.67092 16.833C3.12444 15.7824 5.09955 15.8278 6.50334 16.9439C7.30589 17.5263 8.31158 17.7554 9.28722 17.5782C10.2629 17.401 11.1237 16.8327 11.6701 16.0053L11.7304 15.9062C11.914 15.604 12.1949 15.3733 12.5269 15.2518C13.0653 15.0533 13.6687 15.1572 14.1097 15.5242C14.5508 15.8913 14.7625 16.4657 14.6652 17.0312C14.5678 17.5967 14.1762 18.0673 13.6378 18.2657C13.2888 18.3927 12.9061 18.3927 12.5571 18.2657C11.6305 17.9706 10.6241 18.0596 9.76372 18.5129C8.90331 18.9662 8.26078 19.7457 7.98018 20.6769L7.95004 20.7888C7.93799 20.8256 7.92793 20.863 7.9199 20.9008L7.89837 20.9826C7.49076 22.695 6.01158 23.9397 4.25469 24.0486C2.4978 24.1576 0.876186 23.1052 0.260145 21.4562Z" fill="white"/>
<rect id="&#231;&#159;&#169;&#229;&#189;&#162;" x="66.3476" y="1.07326" width="4.33149" height="25.8081" fill="white"/>
<rect id="&#231;&#159;&#169;&#229;&#189;&#162;_2" x="46.4727" y="8.17328" width="3.24646" height="18.7081" fill="white"/>
<path id="&#231;&#159;&#169;&#229;&#189;&#162;_3" fill-rule="evenodd" clip-rule="evenodd" d="M71.8459 14.8126V10.4811H83.7252V14.8126H71.8459Z" fill="white"/>
<rect id="&#231;&#159;&#169;&#229;&#189;&#162;_4" x="81.7833" y="22.5757" width="4.33149" height="4.33149" fill="white"/>
<path id="&#232;&#183;&#175;&#229;&#190;&#132;_3" fill-rule="evenodd" clip-rule="evenodd" d="M81.1762 1.09909C77.3956 1.11096 74.3384 4.18164 74.3431 7.9623V26.9072H78.6703V7.9623C78.6703 6.57481 79.7888 5.4467 81.1762 5.43488H83.7252V1.09909H81.1762Z" fill="white"/>
<path id="&#229;&#189;&#162;&#231;&#138;&#182;" fill-rule="evenodd" clip-rule="evenodd" d="M40.363 8.17328C35.1957 8.17328 31.0068 12.3622 31.0068 17.5295C31.0068 22.6967 35.1957 26.8856 40.363 26.8856C45.5302 26.8856 49.7191 22.6967 49.7191 17.5295C49.7191 12.3622 45.5302 8.17328 40.363 8.17328ZM40.9055 23.0924C38.6534 23.0924 36.6231 21.7355 35.7616 19.6546C34.9002 17.5738 35.3773 15.1789 36.9704 13.587C38.5635 11.9951 40.9587 11.5199 43.0389 12.383C45.1191 13.246 46.4744 15.2773 46.4727 17.5295C46.4727 19.0056 45.886 20.4212 44.8418 21.4645C43.7976 22.5079 42.3816 23.0935 40.9055 23.0924Z" fill="white"/>
<path id="&#231;&#159;&#169;&#229;&#189;&#162;_5" fill-rule="evenodd" clip-rule="evenodd" d="M46.4727 19.1527V15.9062H64.5306V19.1527H46.4727Z" fill="white"/>
<path id="&#232;&#183;&#175;&#229;&#190;&#132;_4" fill-rule="evenodd" clip-rule="evenodd" d="M56.4058 22.989C53.9915 22.9939 51.8492 21.442 51.1013 19.1465C50.3534 16.8509 51.1703 14.3349 53.1241 12.9166C55.0779 11.4982 57.7232 11.5009 59.6742 12.9231C61.6251 14.3453 62.437 16.8629 61.6846 19.157H65.0171C65.1138 18.6213 65.1628 18.0781 65.1635 17.5338C65.1616 13.0691 62.0055 9.22787 57.6261 8.36C53.2466 7.49214 48.8641 9.8395 47.1597 13.966C45.4554 18.0925 46.904 22.8483 50.6195 25.3239C54.3349 27.7994 59.2818 27.305 62.4337 24.1429L59.9752 21.6801C58.9776 22.5247 57.7129 22.9884 56.4058 22.989Z" fill="white"/>
</g>
</svg>
