<svg width="64" height="64" viewBox="0 0 64 64" fill="none" xmlns="http://www.w3.org/2000/svg">
<g id="Icon/Search_Not_Found">
<g id="Ellipse 2646">
<circle cx="32" cy="32" r="32" fill="#E5F0FF"/>
<circle cx="32" cy="32" r="31.5" stroke="#327DEC" stroke-opacity="0.2"/>
</g>
<g id="Icon/Search_Not_Found/Search">
<path id="Union" fill-rule="evenodd" clip-rule="evenodd" d="M22.9289 37.0711C26.8342 40.9763 33.1658 40.9763 37.0711 37.0711C40.9763 33.1658 40.9763 26.8342 37.0711 22.9289C33.1658 19.0237 26.8342 19.0237 22.9289 22.9289C19.0237 26.8342 19.0237 33.1658 22.9289 37.0711ZM35.6569 35.6569C38.781 32.5327 38.781 27.4673 35.6569 24.3431C32.5327 21.219 27.4673 21.219 24.3431 24.3431C21.219 27.4673 21.219 32.5327 24.3431 35.6569C27.4673 38.781 32.5327 38.781 35.6569 35.6569ZM37.0455 38.4484L42.0265 43.4293C42.417 43.8198 43.0502 43.8198 43.4407 43.4293C43.8312 43.0388 43.8312 42.4056 43.4407 42.0151L38.4587 37.0331C38.2452 37.2892 38.0183 37.5379 37.778 37.7783C37.5416 38.0147 37.2972 38.238 37.0455 38.4484ZM26.5 31C27.0523 31 27.5 30.5523 27.5 30C27.5 29.4477 27.0523 29 26.5 29C25.9477 29 25.5 29.4477 25.5 30C25.5 30.5523 25.9477 31 26.5 31ZM33.5 31C34.0523 31 34.5 30.5523 34.5 30C34.5 29.4477 34.0523 29 33.5 29C32.9477 29 32.5 29.4477 32.5 30C32.5 30.5523 32.9477 31 33.5 31ZM31 30C31 30.5523 30.5523 31 30 31C29.4477 31 29 30.5523 29 30C29 29.4477 29.4477 29 30 29C30.5523 29 31 29.4477 31 30Z" fill="#266CD3"/>
</g>
</g>
</svg>
