<svg width="64" height="64" viewBox="0 0 64 64" fill="none" xmlns="http://www.w3.org/2000/svg">
<g id="Group 48097332">
<circle id="Ellipse 2646" cx="32" cy="32" r="31.5" fill="#FFEDED" stroke="#FFD0D0"/>
<path id="Union" fill-rule="evenodd" clip-rule="evenodd" d="M34.5987 22C33.444 20 30.5573 20 29.4026 22L20.7423 37C19.5876 39 21.031 41.5 23.3404 41.5H40.6609C42.9703 41.5 44.4137 39 43.259 37L34.5987 22ZM31.1346 23C31.5195 22.3333 32.4818 22.3333 32.8667 23L41.5269 38C41.9118 38.6667 41.4307 39.5 40.6609 39.5H23.3404C22.5706 39.5 22.0895 38.6667 22.4744 38L31.1346 23ZM31.0007 28C31.0007 27.4477 31.4484 27 32.0007 27C32.553 27 33.0007 27.4477 33.0007 28V33C33.0007 33.5523 32.553 34 32.0007 34C31.4484 34 31.0007 33.5523 31.0007 33V28ZM33.0007 36C33.0007 36.5523 32.553 37 32.0007 37C31.4484 37 31.0007 36.5523 31.0007 36C31.0007 35.4477 31.4484 35 32.0007 35C32.553 35 33.0007 35.4477 33.0007 36Z" fill="#FF4D4F"/>
</g>
</svg>
